<svg id="Layer_1" data-name="Layer 1" xmlns="http://www.w3.org/2000/svg" viewBox="0 0 972.57 830.55">
  <defs>
    <style>
      .cls-1, .cls-8 {
        fill: #f59037;
      }

      .cls-1, .cls-10, .cls-13, .cls-3, .cls-5 {
        opacity: 0.1;
      }

      .cls-1, .cls-13, .cls-3, .cls-5 {
        isolation: isolate;
      }

      .cls-2 {
        fill: #65617d;
      }

      .cls-4, .cls-5 {
        fill: #333f4f;
      }

      .cls-6 {
        fill: #3f3d56;
      }

      .cls-7 {
        fill: #fbbebe;
      }

      .cls-9 {
        fill: #512e4e;
      }

      .cls-11 {
        fill: #e1dee5;
      }

      .cls-12 {
        fill: #d9d6df;
      }

      .cls-13, .cls-16 {
        fill: #fff;
      }

      .cls-14 {
        fill: #ffd037;
      }

      .cls-15 {
        fill: #9d9cb5;
      }

      .cls-17 {
        fill: #d3dae1;
      }

      .cls-18 {
        fill: #e6e6e6;
      }

      .cls-19 {
        fill: #f2f2f2;
      }
    </style>
  </defs>
  <title>adminerp</title>
  <path class="cls-1" d="M265.84,29.66C295.05,3.66,340.9-1.67,382.63.4,513.72,6.91,632.06,70.2,734.42,141.79c37,25.91,73.53,53.84,97.59,89.53,49,72.65,34.44,173.29-33.65,233.13-23.16,20.37-51.25,36-80.07,49.81-51.26,24.61-106.57,44.36-164.75,50-41.49,4-83.49.75-124.73-4.84-115.24-15.65-228.35-50.21-323.15-109.33C64.08,424.16,24.89,391.92,7.75,350S1.58,254.85,44,230c17.56-10.27,38.55-14.9,59.11-19.26,30.25-6.41,61-12.73,88.3-25.76,28.2-13.46,61.59-39.5,56-69.29C241.47,83.74,236.66,55.66,265.84,29.66Z" transform="translate(0 0)"/>
  <path class="cls-2" d="M385.87,279.38V397a52.62,52.62,0,0,0,52.59,52.65h70.27A47.27,47.27,0,0,0,556,402.36v-123a85.08,85.08,0,0,0-170.16,0Z" transform="translate(0 0)"/>
  <path class="cls-3" d="M385.87,279.38V397a52.62,52.62,0,0,0,52.59,52.65h70.27A47.27,47.27,0,0,0,556,402.36v-123a85.08,85.08,0,0,0-170.16,0Z" transform="translate(0 0)"/>
  <path class="cls-2" d="M388.4,280.64V394.72a51.06,51.06,0,0,0,51,51.08h68.17A45.86,45.86,0,0,0,553.5,400V280.64a82.55,82.55,0,0,0-165.1,0Z" transform="translate(0 0)"/>
  <path class="cls-3" d="M408.9,297.5v94.88a45.53,45.53,0,0,0,6.89,24.29c6.94,11,18.46,18.19,31.51,18.19h51.21c12.44,0,23.34-7.27,29.4-18.19a41,41,0,0,0,5.09-20V297.5c0-37.91-27.78-68.65-62.05-68.65-17.13,0-32.64,7.68-43.87,20.11A72.3,72.3,0,0,0,408.9,297.5Z" transform="translate(0 0)"/>
  <circle class="cls-4" cx="580.45" cy="623.42" r="9.39"/>
  <circle class="cls-4" cx="563.65" cy="660.16" r="9.39"/>
  <circle class="cls-4" cx="396.12" cy="666.81" r="9.39"/>
  <circle class="cls-4" cx="358.69" cy="618.88" r="9.39"/>
  <rect class="cls-4" x="464.64" y="457.59" width="11.76" height="73.47"/>
  <rect class="cls-5" x="464.64" y="519.17" width="11.76" height="11.9"/>
  <rect class="cls-4" x="462.37" y="521.96" width="16.3" height="81.52"/>
  <path class="cls-4" d="M360.73,603l106.71-4.37v17.14H343.6A18.92,18.92,0,0,1,360.73,603Z" transform="translate(0 0)"/>
  <path class="cls-4" d="M574.16,603l-106.72-4.37v17.14H591.29A18.92,18.92,0,0,0,574.16,603Z" transform="translate(0 0)"/>
  <path class="cls-4" d="M478.68,600.33l85.19,42a21.55,21.55,0,0,1,12,19.35V663l-99.5-43.38-14-1L379.63,671.4h0a21.58,21.58,0,0,1,8.91-20.49l73.83-52.28Z" transform="translate(0 0)"/>
  <path class="cls-5" d="M464.65,457.59v7.92c2.05.08,4.14.12,6.29.12,1.85,0,3.67,0,5.46-.09v-8Z" transform="translate(0 0)"/>
  <ellipse class="cls-4" cx="470.94" cy="450.15" rx="43.39" ry="12.69"/>
  <path class="cls-4" d="M427.93,450.14a5.13,5.13,0,0,0,1.85,3.67,11.6,11.6,0,0,0,1.38,1.14c6.46,4.62,22,7.88,40.15,7.88s33.82-3.29,40.25-7.95a9.11,9.11,0,0,0,.92-.72,5.46,5.46,0,0,0,2.23-4c0-7-19.42-12.69-43.4-12.69S427.93,443.13,427.93,450.14Z" transform="translate(0 0)"/>
  <path class="cls-5" d="M427.93,450.14a5.13,5.13,0,0,0,1.85,3.67,11.6,11.6,0,0,0,1.38,1.14c6.46,4.62,22,7.88,40.15,7.88s33.82-3.29,40.25-7.95a9.11,9.11,0,0,0,.92-.72,5.46,5.46,0,0,0,2.23-4c0-7-19.42-12.69-43.4-12.69S427.93,443.13,427.93,450.14Z" transform="translate(0 0)"/>
  <path class="cls-5" d="M427.56,450.14a5.13,5.13,0,0,0,1.85,3.67c5.53-1.37,9.35-2.52,9.35-2.52s38.24,2.14,73.35,2.87a5.46,5.46,0,0,0,2.23-4c0-7-19.42-12.69-43.4-12.69S427.56,443.13,427.56,450.14Z" transform="translate(0 0)"/>
  <path class="cls-5" d="M397.56,423.92a51,51,0,0,0,41.93,21.88h68.12a45.86,45.86,0,0,0,39.12-21.88Z" transform="translate(0 0)"/>
  <path class="cls-5" d="M427.93,450.14a5.13,5.13,0,0,0,1.85,3.67,11.6,11.6,0,0,0,1.38,1.14,653.56,653.56,0,0,0,80.4-.07,9.11,9.11,0,0,0,.92-.72,5.46,5.46,0,0,0,2.23-4c0-7-19.42-12.69-43.4-12.69S427.93,443.13,427.93,450.14Z" transform="translate(0 0)"/>
  <path class="cls-4" d="M388.93,449a657.5,657.5,0,0,0,164.78,0,11.53,11.53,0,0,0,11.58-11.48v-.05h0a11.53,11.53,0,0,0-11.53-11.53H388.93a11.53,11.53,0,0,0-11.53,11.53h0A11.53,11.53,0,0,0,388.93,449Z" transform="translate(0 0)"/>
  <path class="cls-2" d="M540.8,574.56s11.37,11.64,19.13,12.75,14.14,26.06,3.33,28-31.61-5.82-34.66-9.15-14.14-23-14.14-23Z" transform="translate(0 0)"/>
  <path class="cls-6" d="M478.14,450.35s27.73,52.95,28.28,60.16,24.12,37.76,24.12,37.76l-29.39,37.1s-3.88-9.43-10.53-12.76-5.27-10.81-5.27-10.81-6.93,0-11.92-8.32-11.09-16.63-11.09-20.21S425.74,492,425.74,492l2.77-40.2L436,439Z" transform="translate(0 0)"/>
  <path class="cls-3" d="M550.23,453.4l.24.21c3.36,3,41.07,36.42,41.07,37.21s13.58,23.29-3.33,42.7-55.73,51.29-55.73,51.29-16.91,12.2-19.13,14.7-35.76,0-15.8-22.74,38.81-48.24,38.81-48.24-33.27-8-35.48-13.58,43.8-74.86,43.8-74.86Z" transform="translate(0 0)"/>
  <path class="cls-6" d="M551.34,453.4l.24.21c3.36,3,41.07,36.42,41.07,37.21s13.58,23.29-3.33,42.7-55.73,51.29-55.73,51.29-16.91,12.2-19.13,14.7-35.77,0-15.8-22.74,38.81-48.24,38.81-48.24S504.2,520.53,502,515s-46-73.48-46-73.48l89.83-1.38Z" transform="translate(0 0)"/>
  <path class="cls-7" d="M455.41,304.27l3.32,30.22s34.1,13.59,34.94,13.31,22.73-20,19.13-33c-1.81-6.53-2.64-15.59-3-23s-.31-13.05-.31-13.05S459.86,261,464.3,273.2c1.61,4.43.88,9.74-.7,14.7A68.36,68.36,0,0,1,455.41,304.27Z" transform="translate(0 0)"/>
  <path class="cls-3" d="M463.58,287.88c.3.35.61.68.92,1a33.24,33.24,0,0,0,45.28,2.88c-.38-7.34-.31-13.05-.31-13.05s-49.63-17.75-45.19-5.55C465.89,277.61,465.16,282.92,463.58,287.88Z" transform="translate(0 0)"/>
  <path class="cls-7" d="M455.41,265a33.06,33.06,0,1,0,0-.42Z" transform="translate(0 0)"/>
  <path class="cls-3" d="M496.44,335.61s13-28.88,17.47-28.88,11.38,149.39,11.38,149.39l-67.92,1.06-2.78-78.43,13.85-69.48S480.91,336.68,496.44,335.61Z" transform="translate(0 0)"/>
  <path class="cls-3" d="M496.44,337.83s13-28.88,17.47-28.88,11.38,149.38,11.38,149.38l-77.07,1.17L454.59,381l13.87-69.53S480.91,338.9,496.44,337.83Z" transform="translate(0 0)"/>
  <path class="cls-2" d="M496.44,336.72s13-28.88,17.47-28.88,11.38,149.43,11.38,149.43l-77.07,1.17,6.37-78.53,13.87-69.53S480.91,337.79,496.44,336.72Z" transform="translate(0 0)"/>
  <path class="cls-3" d="M509.08,298.77s2.33-3.41,5.66-2.3,5.82-1.94,9.15,1.11,16.63,7.21,19.13,5.82,11.36,4.72,13.31,8.32S564.64,325,564.64,325s5.55,6.65,4.72,10.26,1.94,7.76,5.26,9.42,10,18.3,10,18.3-1.81,22.26,5.67,26.13,1.94,20.8,1.94,20.8l-35.36-8.39-10-22.74s3.88,66.55,8.59,72.64,5.27,10,5.27,10-18.3,3.88-22.18,7.2-14.14-.83-14.14-.83l-10-88.44s-3.6-16.64-3.6-25.23S509.08,298.77,509.08,298.77Z" transform="translate(0 0)"/>
  <path class="cls-8" d="M510.19,298.77s2.33-3.41,5.66-2.3,5.82-1.94,9.15,1.11,16.63,7.21,19.13,5.82,11.36,4.72,13.3,8.32S565.75,325,565.75,325s5.55,6.65,4.72,10.26,1.94,7.76,5.26,9.42,10,18.3,10,18.3-1.79,22.25,5.7,26.13c1.87,1,2.93,3.13,3.46,5.83,2.15,10.86-6.76,20.8-17.83,20.46l-19-7.88-10-28.74s3.88,66.55,8.59,72.64,5.27,10,5.27,10-18.3,3.88-22.18,7.2-14.14-.83-14.14-.83l-10-88.44s-3.6-16.64-3.6-25.23S510.19,298.77,510.19,298.77Z" transform="translate(0 0)"/>
  <path class="cls-3" d="M571.29,346.93s-3.33,9.15-12.48,8.32S571.29,346.93,571.29,346.93Z" transform="translate(0 0)"/>
  <path class="cls-3" d="M562.43,333.07s-6.1,1.11-8.32,6.37S562.43,333.07,562.43,333.07Z" transform="translate(0 0)"/>
  <path class="cls-3" d="M545.29,323.64c0,1.11-3.89,20.52,0,28.56s3.32,17.47,3.32,17.47Z" transform="translate(0 0)"/>
  <path class="cls-3" d="M463.4,292.09s-2.17-2.55-4.39-2.27-3.6,1.66-6.38,2.77-9.42,1.39-9.42,2.22-5.83,4.16-9.71,5S417.42,309,414.37,325s-8.32,20.79-8.32,20.79l29.39,14.44s-22.73,96.48-25.5,103.41-3,48-3,48,18,8,22.73,10.53,2.77-23.84,12.48-39.09,20.79-37.43,20.79-37.43l16.86-47.42s10.82-63.21,1.67-74.86S462.57,296.27,463.4,292.09Z" transform="translate(0 0)"/>
  <path class="cls-8" d="M462.29,292.09s-2.17-2.55-4.39-2.27-3.6,1.66-6.38,2.77-9.42,1.39-9.42,2.22-5.82,4.16-9.71,5S416.29,309,413.29,325,405,345.82,405,345.82l29.31,14.45s-22.73,96.48-25.5,103.41-3,48-3,48,18,8,22.73,10.53,2.77-23.94,12.47-39.15,20.79-37.43,20.79-37.43l16.91-47.36s10.82-63.21,1.67-74.86S461.46,296.27,462.29,292.09Z" transform="translate(0 0)"/>
  <path class="cls-3" d="M402.17,413.47c.82.13,1.87.26,3.08.37,8.88.81,26.31,1,26.31,1s13-25.79,24.12-25c0,0-10.26-11.64-14.41-10.25-.7.23-1.14-.28-1.35-1.28-1.11-5,2.73-22,2.73-22l5.27-23-30.5,7.48c-2.77.56-11.37,5-11.37,5s-.27,11.92-2.49,14.7-4.71,16.08-4.44,19.4-3.05,18.86.28,23S395.29,412.36,402.17,413.47Z" transform="translate(0 0)"/>
  <path class="cls-2" d="M516.12,595.07s1.67,9.15-.27,15-1.67,18.58-.28,23,6.1,10.53-6.65,13.3-21.35.28-21.91-1.94-3.32-11.09-1.11-16.08,3-18-1.11-25.51-1.38-19.13,2.5-20.51,10.54-4.44,10.54-4.44-7.21,13-.56,15.81S516.12,595.07,516.12,595.07Z" transform="translate(0 0)"/>
  <path class="cls-3" d="M455.41,265a33.06,33.06,0,0,0,9.09,22.84.8.8,0,0,0,.08-.16,14.56,14.56,0,0,0,1.85-6.61c-.09-2.79-1.7-5.31-2.22-8.07-.65-3.48.49-7,1.61-10.38.82-2.46,2.41-5.45,5-5.15a5.62,5.62,0,0,0,1.53.18c1.37-.21,1.65-2,1.81-3.38a15.36,15.36,0,0,1,12.53-13.16,3.89,3.89,0,0,1,2.19.15c1,.43,1.49,1.47,2.36,2.07,2.81,1.95,6.39-1.78,9.81-1.49,2.91.24,4.68,3.21,5.88,5.87s2.69,5.69,5.54,6.31a1.77,1.77,0,0,0,1.35-.15c.88-.65.27-2-.18-3-1.17-2.64-.39-4.73,1-6.61A33.26,33.26,0,0,0,455.39,265Z" transform="translate(0 0)"/>
  <path class="cls-9" d="M513.62,249.69c.45,1,1.07,2.38.17,3a1.7,1.7,0,0,1-1.34.15c-2.85-.61-4.35-3.65-5.55-6.31s-3-5.63-5.87-5.87c-3.42-.29-7,3.44-9.82,1.49-.86-.6-1.39-1.64-2.35-2.07a3.8,3.8,0,0,0-2.19-.14,15.36,15.36,0,0,0-12.54,13.15c-.14,1.37-.43,3.17-1.8,3.38a5.62,5.62,0,0,1-1.53-.18c-2.58-.3-4.16,2.68-5,5.14-1.12,3.37-2.26,6.91-1.61,10.39.52,2.76,2.13,5.28,2.22,8.08.07,2.3-.9,4.5-1.85,6.6s-2.52,4.56-4.8,4.26c-1.88-.24-2.91-2.23-3.81-3.9s-2.52-3.45-4.34-2.93c-.82.24-1.66.93-2.4.51a1.78,1.78,0,0,1-.7-1.21c-.89-3.87.39-8.23-1.5-11.73-1.45-2.69-4.39-4.15-6.78-6.06a19.42,19.42,0,0,1-3.05-27.29c.14-.18.28-.34.42-.51,2.56-3,6.24-5.64,6.45-9.57.15-3-1.87-5.75-1.89-8.75s1.85-5.52,4-7.51a25.83,25.83,0,0,1,23.22-6.12c2.15.52,4.31,1.32,6.5,1.05,2.55-.32,4.67-2,7-3.18a17.79,17.79,0,0,1,22.21,6c2.62,4.09,3.65,9.42,7.57,12.29,2.57,1.88,6.27,2.59,7.69,5.44.85,1.72.61,3.75.35,5.64a13.2,13.2,0,0,1-4.22,8.08C514.07,243.49,512,246.08,513.62,249.69Z" transform="translate(0 0)"/>
  <g class="cls-10">
    <path d="M442.86,222.73a14.23,14.23,0,0,1-.59-2.31A14.23,14.23,0,0,1,442.86,222.73Z" transform="translate(0 0)"/>
    <path d="M513.06,247.27a8.78,8.78,0,0,0-.55-1.48c-1.6-3.62.45-6.2,2.84-8.62a13.19,13.19,0,0,0,4.21-8.08,20,20,0,0,0,.24-2.56,5.22,5.22,0,0,1,.52.8c.85,1.72.61,3.75.35,5.64a13.2,13.2,0,0,1-4.22,8.08C514.63,242.92,513,244.86,513.06,247.27Z" transform="translate(0 0)"/>
    <path d="M450.52,280.07c1.82-.53,3.44,1.27,4.34,2.93s1.93,3.66,3.81,3.9c2.28.29,3.85-2.17,4.8-4.26s1.93-4.3,1.85-6.6a7.53,7.53,0,0,0-.08-.83,15,15,0,0,1,1.19,4.71c.07,2.3-.9,4.5-1.85,6.6s-2.52,4.56-4.8,4.26c-1.88-.24-2.91-2.23-3.81-3.9s-2.52-3.45-4.34-2.93c-.82.24-1.66.93-2.4.51a1.78,1.78,0,0,1-.7-1.21,14.66,14.66,0,0,1-.33-2.64C448.92,280.93,449.74,280.27,450.52,280.07Z" transform="translate(0 0)"/>
    <path d="M439.14,261.58c2.39,1.91,5.34,3.37,6.79,6.06a9.82,9.82,0,0,1,1,3.75c-1.47-2.6-4.35-4.05-6.7-5.93a19.55,19.55,0,0,1-7-11.85A19.45,19.45,0,0,0,439.14,261.58Z" transform="translate(0 0)"/>
    <path d="M464.15,271.38a22.53,22.53,0,0,1-1-3.42c-.65-3.48.49-7,1.61-10.39.82-2.46,2.41-5.44,5-5.14a5.62,5.62,0,0,0,1.53.18c1.37-.21,1.66-2,1.8-3.39a15.37,15.37,0,0,1,12.54-13.14,3.8,3.8,0,0,1,2.19.14c1,.43,1.49,1.47,2.35,2.07,2.82,2,6.4-1.78,9.82-1.49,2.9.24,4.68,3.21,5.88,5.87s2.7,5.69,5.54,6.31a1.7,1.7,0,0,0,1.34-.15,1.07,1.07,0,0,0,.44-.83,6.7,6.7,0,0,0,.5,1.69c.45,1,1.07,2.38.17,3a1.7,1.7,0,0,1-1.34.15c-2.85-.61-4.35-3.65-5.55-6.31s-3-5.63-5.87-5.87c-3.42-.29-7,3.44-9.82,1.49-.86-.6-1.39-1.64-2.35-2.07a3.8,3.8,0,0,0-2.19-.14,15.36,15.36,0,0,0-12.54,13.15c-.14,1.37-.43,3.17-1.8,3.38a5.62,5.62,0,0,1-1.53-.18c-2.58-.3-4.16,2.68-5,5.14C464.75,264.67,463.68,268.05,464.15,271.38Z" transform="translate(0 0)"/>
  </g>
  <path class="cls-3" d="M405.29,413.84c8.88.81,26.31,1,26.31,1s13-25.79,24.12-25c0,0-10.26-11.64-14.41-10.25-.7.23-1.14-.28-1.35-1.28-10.86,3.32-31.56,11.43-33.59,25.67C405.79,407.86,405.44,411.1,405.29,413.84Z" transform="translate(0 0)"/>
  <path class="cls-8" d="M404.14,413.84c8.88.81,26.31,1,26.31,1s13-25.79,24.12-25c0,0-10.25-11.64-14.41-10.25-.7.23-1.13-.28-1.35-1.28C428,381.63,407.25,389.74,405.22,404,404.68,407.86,404.34,411.1,404.14,413.84Z" transform="translate(0 0)"/>
  <path class="cls-3" d="M482,488.05s-25-6.1-28.83-2.77S482,488.05,482,488.05Z" transform="translate(0 0)"/>
  <path class="cls-3" d="M553.55,511.9S543,518,541.91,523,553.55,511.9,553.55,511.9Z" transform="translate(0 0)"/>
  <path class="cls-3" d="M511.41,624.27s-14.42-2.22-18.11.18S511.41,624.27,511.41,624.27Z" transform="translate(0 0)"/>
  <path class="cls-11" d="M367.36,817.81s55.88-3,69.5-11,32.9-8,33-8l222.5-48.54,92.5-22,16.5-2.17-54.5-62.36L745.2,663l-80.34-34.75s-36,2-43.11,25.46a28.14,28.14,0,0,0-1,5.06,29.31,29.31,0,0,0,5.68,20.53c2.84,3.89,6.33,9.39,7.43,14.25.62,2.74.48,5.27-1,7.2a58.7,58.7,0,0,1-9.88,7.89c-19.59,13-69.11,34.42-155.62,1.61,0,0-37-36.5-65-21S367.36,817.81,367.36,817.81Z" transform="translate(0 0)"/>
  <path class="cls-3" d="M633.82,693.61c.62,2.74.48,5.27-1,7.2a58.7,58.7,0,0,1-9.88,7.89l168.42,12.57L745.2,663l-80.34-34.75s-36,2-43.11,25.46a28.14,28.14,0,0,0-1,5.06,29.31,29.31,0,0,0,5.68,20.53C629.23,683.27,632.72,688.75,633.82,693.61Z" transform="translate(0 0)"/>
  <polygon class="cls-2" points="798.36 464.31 660.36 467.31 660.36 632.5 791.36 721.31 822.86 692.31 816.36 596.31 822.86 506.81 798.36 464.31"/>
  <path class="cls-12" d="M876.86,437.27,715.74,387.66a24,24,0,0,0-9-1l-384.9,28.1a181.67,181.67,0,0,0-91.66,32.33c-24.91,17.57-49.58,44.54-61,85.37a163.06,163.06,0,0,0,1.73,91.81l34,110s-25.5-239,229-251Z" transform="translate(0 0)"/>
  <path class="cls-13" d="M626.39,679.36c2.84,3.89,6.33,9.39,7.43,14.25,4.36-5.05,5.3-10.75-1-15.3-7.89-5.74-10.52-15.7-11.11-24.54a28.14,28.14,0,0,0-1,5.06A29.31,29.31,0,0,0,626.39,679.36Z" transform="translate(0 0)"/>
  <path class="cls-2" d="M222.36,706.27l19,64.5,43,42,54,11,84-15V510.27s-14.5-9.5-16-9.5-42,6.5-42,6.5L272.66,573l-3.8,2.73-41,61Z" transform="translate(0 0)"/>
  <polygon class="cls-2" points="422.36 497.81 422.36 808.81 414.25 810.26 414.25 497.81 422.36 497.81"/>
  <polygon class="cls-3" points="798.36 464.31 660.36 467.31 660.36 632.5 791.36 721.31 822.86 692.31 816.36 596.31 822.86 506.81 798.36 464.31"/>
  <polygon class="cls-3" points="422.36 497.81 422.36 808.81 414.25 810.26 414.25 497.81 422.36 497.81"/>
  <path class="cls-3" d="M270.86,593.81c60-49.3,126.7-56.55,151.5-57.45V510.27s-14.5-9.5-16-9.5-42,6.5-42,6.5L272.66,573Z" transform="translate(0 0)"/>
  <path class="cls-2" d="M937.86,567.27s-6.19,16.36-12.83,35.41c-5.88,16.93-12.12,36-14.67,47.59-1,4.43-3.51,9-7.06,13.47-16.19,20.55-53.5,40.46-59.94,47.53-7.85,8.62-52,14.83-52,14.83V460.81l29.5-9.5h37.5l48.5,22,25,37Z" transform="translate(0 0)"/>
  <path class="cls-7" d="M423.29,412.09c1.94,2.36,60.86,2.91,63.91,2.22l5.54-1.25s28.44,15.31,48-9.74c.84-1.07,1.66-2.21,2.46-3.43,19.55-29.8-45.61-8-45.61-8s-24.95.14-31.33.14h-.66c-6.63-.27-19.85-4.29-19.85-4.29S421.36,409.74,423.29,412.09Z" transform="translate(0 0)"/>
  <path class="cls-3" d="M509.29,403.11s24.95.14,31.33.21h.15c.84-1.07,1.66-2.21,2.46-3.43,19.55-29.8-45.61-8-45.61-8s-24.95.14-31.33.14h-.66c-.63.82-1.25,1.68-1.86,2.59C443.88,424.16,509.29,403.11,509.29,403.11Z" transform="translate(0 0)"/>
  <path class="cls-7" d="M561.07,405.85s-14.09-4.46-20.47-4.53-31.33-.2-31.33-.2-65.39,21-45.52-8.55S514.36,380,514.36,380l5.55-1.19c3.06-.66,62,.55,63.88,2.93S561.07,405.85,561.07,405.85Z" transform="translate(0 0)"/>
  <path class="cls-8" d="M590.29,389.14s-.4,19.23-13.73,20.33c-28,2.29-20.88-8.53-20.88-8.53l2.42-21.54,13.19-11.94s5.79,2.66,6.54,2.21S590.29,389.14,590.29,389.14Z" transform="translate(0 0)"/>
  <path class="cls-8" d="M401.06,413.47c.82.13,1.87.26,3.08.37,8.88.81,26.31,1,26.31,1s13-25.79,24.12-25c0,0-10.25-11.64-14.41-10.25-.7.23-1.13-.28-1.35-1.28-1.1-5,2.73-22,2.73-22l5.27-23-30.52,7.52c-2.77.56-11.36,5-11.36,5s-.28,11.92-2.5,14.7-4.71,16.08-4.44,19.4-3.05,18.86.28,23S394.13,412.36,401.06,413.47Z" transform="translate(0 0)"/>
  <path class="cls-3" d="M432.39,353s-25.5,2.77-26.61,9.15S432.39,353,432.39,353Z" transform="translate(0 0)"/>
  <path class="cls-3" d="M417.14,378c-1.66.56-11.36,3-13.3,8.88S417.14,378,417.14,378Z" transform="translate(0 0)"/>
  <path class="cls-3" d="M405.29,414.87c8.88.81,26.31,1,26.31,1s13-25.79,24.12-25c0,0-10.26-11.64-14.41-10.25-.7.23-1.14-.28-1.35-1.28-10.86,3.32-31.56,11.43-33.59,25.67C405.79,408.89,405.44,412.13,405.29,414.87Z" transform="translate(0 0)"/>
  <circle class="cls-1" cx="822.99" cy="92.87" r="21.63"/>
  <circle class="cls-1" cx="918.99" cy="145.87" r="17.01"/>
  <circle class="cls-1" cx="966.57" cy="63.9" r="6"/>
  <path class="cls-8" d="M124.15,689.52s7.13,9.33-3.29,23.41-19,26-15.55,34.76c0,0,15.73-26.16,28.54-26.52S138.29,705.27,124.15,689.52Z" transform="translate(0 0)"/>
  <path class="cls-3" d="M124.15,689.52a11.74,11.74,0,0,1,1.46,2.92c12.49,14.68,19.15,28.38,7.14,28.73-11.19.32-24.61,20.32-27.82,25.37a9.11,9.11,0,0,0,.38,1.15s15.73-26.16,28.54-26.52S138.29,705.27,124.15,689.52Z" transform="translate(0 0)"/>
  <path class="cls-14" d="M137.41,701.41c0,3.28-.37,5.94-.82,5.94s-.82-2.66-.82-5.94.46-1.74.91-1.74S137.41,698.12,137.41,701.41Z" transform="translate(0 0)"/>
  <path class="cls-14" d="M142,705.33c-2.88,1.57-5.39,2.52-5.61,2.12s1.94-2,4.83-3.57,1.74-.43,2,0S144.85,703.76,142,705.33Z" transform="translate(0 0)"/>
  <path class="cls-8" d="M86.46,689.52s-7.13,9.33,3.29,23.41,19,26,15.56,34.76c0,0-15.74-26.16-28.54-26.52S72.37,705.27,86.46,689.52Z" transform="translate(0 0)"/>
  <path class="cls-3" d="M86.46,689.52A11.74,11.74,0,0,0,85,692.44c-12.49,14.68-19.15,28.38-7.14,28.73,11.19.32,24.61,20.32,27.83,25.37a11.9,11.9,0,0,1-.38,1.15s-15.74-26.16-28.54-26.52S72.37,705.27,86.46,689.52Z" transform="translate(0 0)"/>
  <path class="cls-14" d="M73.2,701.41c0,3.28.37,5.94.82,5.94s.82-2.66.82-5.94-.46-1.74-.91-1.74S73.2,698.12,73.2,701.41Z" transform="translate(0 0)"/>
  <path class="cls-14" d="M68.65,705.33c2.88,1.57,5.39,2.52,5.61,2.12s-1.94-2-4.83-3.57-1.74-.43-2,0S65.76,703.76,68.65,705.33Z" transform="translate(0 0)"/>
  <ellipse class="cls-1" cx="105.24" cy="807.65" rx="74.6" ry="11.45" transform="translate(-56.78 9.45) rotate(-4.05)"/>
  <path class="cls-2" d="M143.7,735.12l-.36,2.91-.5,4.12-.2,1.71-.5,4.12-.22,1.72-.5,4.11-5.71,46.8c-.51,4.18-7.33,7.43-15.57,7.43H90.47c-8.24,0-15-3.25-15.56-7.43l-5.72-46.8-.5-4.11L68.48,748,68,743.86l-.2-1.71-.5-4.12-.36-2.91c-.29-2.37,3.41-4.36,8.07-4.36h60.66C140.29,730.76,144,732.75,143.7,735.12Z" transform="translate(0 0)"/>
  <polygon class="cls-15" points="143.34 738.04 142.84 742.15 67.75 742.15 67.25 738.04 143.34 738.04"/>
  <polygon class="cls-15" points="142.63 743.87 142.13 747.99 68.47 747.99 67.97 743.87 142.63 743.87"/>
  <polygon class="cls-15" points="141.91 749.7 141.41 753.81 69.19 753.81 68.69 749.7 141.91 749.7"/>
  <polygon class="cls-3" points="701.13 403.44 728.45 404.83 683.41 419.01 660.36 417.68 701.13 403.44"/>
  <polygon class="cls-16" points="701.12 402.25 728.43 403.65 683.39 417.83 660.34 416.49 701.12 402.25"/>
  <path class="cls-17" d="M697.9,405.35c1.07-.47,2.23.38,3.38.58.66.12,1.34,0,2,.1,1.34.16,2.68,1,4,.57Z" transform="translate(0 0)"/>
  <path class="cls-17" d="M696.5,406.19c1.07-.47,2.23.38,3.38.58.66.12,1.34,0,2,.1,1.34.16,2.68,1,4,.56Z" transform="translate(0 0)"/>
  <path class="cls-17" d="M693.29,407.87c1.07-.47,2.23.38,3.39.58.65.12,1.33,0,2,.1,1.34.16,2.68,1,4,.56Z" transform="translate(0 0)"/>
  <path class="cls-8" d="M762.37,398.09S759,414,774.16,415.89l.94-1.76S763.29,403,762.37,398.09Z" transform="translate(0 0)"/>
  <path class="cls-8" d="M779.94,414l-3.54.75-.35.07s-9.44-7.66-9.32-24.76a42,42,0,0,0,4.51,7.13C775,402.15,779.23,408.76,779.94,414Z" transform="translate(0 0)"/>
  <path class="cls-8" d="M781.13,415.65a2.23,2.23,0,0,1-1.9.24c-9.08-2.12-6-31.71-6-31.71.5.24,1,4,3.14,8.86C780,401.58,784.05,413.5,781.13,415.65Z" transform="translate(0 0)"/>
  <path class="cls-8" d="M801.29,398.09s.59,15.92-14.62,17.8l-.94-1.76S800.29,403,801.29,398.09Z" transform="translate(0 0)"/>
  <path class="cls-8" d="M796.91,390.07c.12,17.1-12.14,24.76-12.14,24.76l-.36-.07-3.53-.75c.7-5.25,5-11.86,8.69-16.81A38.73,38.73,0,0,1,796.91,390.07Z" transform="translate(0 0)"/>
  <path class="cls-8" d="M784.36,414.1a5.72,5.72,0,0,1-2,1.55h0a3.28,3.28,0,0,1-.75.24c-2.23.53-3-1.09-2.88-3.82.21-4.88,3.27-13.33,6-19.65a24.48,24.48,0,0,1,5.7-8.24S790.29,407.27,784.36,414.1Z" transform="translate(0 0)"/>
  <path class="cls-8" d="M781.82,373.8s-10.14,36-1.41,41.39S784.06,377,781.82,373.8Z" transform="translate(0 0)"/>
  <path class="cls-3" d="M762.37,398.09S759,414,774.16,415.89l.94-1.76S763.29,403,762.37,398.09Z" transform="translate(0 0)"/>
  <path class="cls-3" d="M779.94,414l-3.54.75-.35.07s-9.44-7.66-9.32-24.76a42,42,0,0,0,4.51,7.13C775,402.15,779.23,408.76,779.94,414Z" transform="translate(0 0)"/>
  <path class="cls-3" d="M781.13,415.65a2.23,2.23,0,0,1-1.9.24c-9.08-2.12-6-31.71-6-31.71.5.24,1,4,3.14,8.86C780,401.58,784.05,413.5,781.13,415.65Z" transform="translate(0 0)"/>
  <path class="cls-3" d="M801.29,398.09s.59,15.92-14.62,17.8l-.94-1.76S800.29,403,801.29,398.09Z" transform="translate(0 0)"/>
  <path class="cls-3" d="M796.91,390.07c.12,17.1-12.14,24.76-12.14,24.76l-.36-.07-3.53-.75c.7-5.25,5-11.86,8.69-16.81A38.73,38.73,0,0,1,796.91,390.07Z" transform="translate(0 0)"/>
  <path class="cls-3" d="M784.36,414.1a5.72,5.72,0,0,1-2,1.55h0a3.28,3.28,0,0,1-.75.24c-2.23.53-3-1.09-2.88-3.82.21-4.88,3.27-13.33,6-19.65a24.48,24.48,0,0,1,5.7-8.24S790.29,407.27,784.36,414.1Z" transform="translate(0 0)"/>
  <path class="cls-3" d="M781.82,373.8s-10.14,36-1.41,41.39S784.06,377,781.82,373.8Z" transform="translate(0 0)"/>
  <path class="cls-8" d="M762.37,398.09s-2,15.92,13.2,17.8l.94-1.76S763.29,403,762.37,398.09Z" transform="translate(0 0)"/>
  <path class="cls-8" d="M781.35,414l-3.54.75-.35.07s-10.85-7.66-10.73-24.76c0,0,2.78,3,5.92,7.13C776.39,402.15,780.64,408.76,781.35,414Z" transform="translate(0 0)"/>
  <path class="cls-3" d="M781.35,414l-3.54.75c-3.35-2.95-4.68-10.63-5.16-17.56C776.39,402.15,780.64,408.76,781.35,414Z" transform="translate(0 0)"/>
  <path class="cls-8" d="M782.55,415.65a2.26,2.26,0,0,1-1.91.24c-9.08-2.12-7.42-31.71-7.42-31.71.5.24,2.47,4,4.55,8.86C781.44,401.58,785.46,413.5,782.55,415.65Z" transform="translate(0 0)"/>
  <path class="cls-8" d="M801.29,398.09s2,15.92-13.2,17.8l-.94-1.76S800.29,403,801.29,398.09Z" transform="translate(0 0)"/>
  <path class="cls-8" d="M796.91,390.07c.12,17.1-10.73,24.76-10.73,24.76l-.35-.07-3.54-.75c.7-5.25,5-11.86,8.7-16.81C794.13,393.05,796.91,390.07,796.91,390.07Z" transform="translate(0 0)"/>
  <path class="cls-3" d="M791,397.2c-.46,6.46-1.64,13.57-4.51,16.9a6.75,6.75,0,0,1-.65.66l-3.54-.75C783,408.76,787.29,402.15,791,397.2Z" transform="translate(0 0)"/>
  <path class="cls-8" d="M785.77,414.1a5.63,5.63,0,0,1-2,1.55h0a4.91,4.91,0,0,1-.74.24c-2.24.53-3-1.09-2.89-3.82.22-4.88,3.28-13.33,6-19.65,2-4.56,3.81-8,4.29-8.24C790.43,384.18,791.71,407.27,785.77,414.1Z" transform="translate(0 0)"/>
  <path class="cls-3" d="M782.55,415.65a2.47,2.47,0,0,1-1.44-.46c-4.27-2.66-4.36-12.65-3.34-22.15C781.44,401.58,785.46,413.5,782.55,415.65Z" transform="translate(0 0)"/>
  <path class="cls-3" d="M785.77,414.1c-.49,1.06-1.15,1.62-2,1.55h0a3,3,0,0,1-1.21-.46,6.6,6.6,0,0,1-2.42-3.12c.22-4.88,3.28-13.33,6-19.65C787.12,401.19,787.45,410.5,785.77,414.1Z" transform="translate(0 0)"/>
  <path class="cls-8" d="M781.82,373.8s-8.72,36,0,41.39S784.06,377,781.82,373.8Z" transform="translate(0 0)"/>
  <polygon class="cls-2" points="795.5 416.96 794.88 420.14 792.66 431.81 771.55 431.81 769.34 420.14 768.73 416.96 795.5 416.96"/>
  <polygon class="cls-3" points="795.5 416.96 794.88 420.14 769.34 420.14 768.73 416.96 795.5 416.96"/>
  <rect class="cls-2" x="763.66" y="413.42" width="36.31" height="6.01"/>
  <path class="cls-12" d="M861.36,464.27s71.76,45,56.06,117.4c-1.28,5.91-2.39,11.84-3.12,17.83-2.87,23.46-20.09,90.77-122.94,121.77v7L835,716.1l29.62-16.33,22.61-20.29,27.64-33.71,12.83-27.5,4.7-36.22,2.67-41.36-6.61-35.42L912.86,482.2l-19-14.78Z" transform="translate(0 0)"/>
  <path class="cls-11" d="M200,657.42c-6.78,36-1.52,73.45,16.18,105.56,51.61,93.62,161.29,66.07,193.65,55.45,7.7-2.53,15.5-4.72,23.4-6.51l356.44-80.78c122.67-21.33,148-120.67,148-120.67,24.29-76.62,7.64-121.26-14.34-146.56a86.77,86.77,0,0,0-70.21-29.34l-42.28,2.24L435,477.81C259.34,479.69,212.41,591.52,200,657.42Zm34.81,4.51C246.68,605.27,293.16,523.09,442.65,518c6.86-.24,13.71-.84,20.52-1.75l336.12-44.9,38.92-2c29.24-1.47,57.46,12.14,73.67,36.51,15.48,23.29,23.85,60,4.7,117.07,0,0-23.43,86.72-136.87,105.35L450.48,798.8c-7.49,1.6-14.89,3.56-22.2,5.82-29.86,9.22-129.15,32.6-177.38-45.92-17.73-28.87-23-63.61-16.07-96.77Z" transform="translate(0 0)"/>
  <rect id="e81a7c33-c795-457d-8abc-c4a3c260cd56" class="cls-18" x="617.99" y="149.69" width="348.58" height="220.75"/>
  <rect id="be98c830-918a-42d1-b1b0-0085d5874e90" class="cls-16" x="627.95" y="168.62" width="328.64" height="184.18"/>
  <rect id="ea07d9fd-7a34-4098-acd7-056fd1871281" class="cls-8" x="617.84" y="136.93" width="348.58" height="19.76"/>
  <ellipse id="b9ed5a45-8896-4ed9-86b4-15f853c9a185" class="cls-16" cx="628.84" cy="148.55" rx="2.74" ry="3.66"/>
  <ellipse id="a9233a38-f8ba-48e0-88f3-496fd4836d40" class="cls-16" cx="639.26" cy="148.55" rx="2.74" ry="3.66"/>
  <ellipse id="aa82180f-a6a9-4f5f-82fc-e73106f4ad92" class="cls-16" cx="649.68" cy="148.55" rx="2.74" ry="3.66"/>
  <rect class="cls-19" x="824.59" y="198.42" width="54.64" height="124.57"/>
  <rect class="cls-8" x="705.32" y="198.42" width="110.21" height="34.29"/>
  <rect class="cls-19" x="705.32" y="242.26" width="110.21" height="36.89"/>
  <rect class="cls-19" x="705.32" y="288.7" width="110.21" height="34.29"/>
</svg>
